<?xml version="1.0" encoding="UTF-8"?>
<svg width="36px" height="33px" viewBox="0 0 36 33" version="1.1" xmlns="http://www.w3.org/2000/svg" xmlns:xlink="http://www.w3.org/1999/xlink">
    <!-- Generator: Sketch 52.5 (67469) - http://www.bohemiancoding.com/sketch -->
    <title>logo-marina</title>
    <desc>Created with Sketch.</desc>
    <g id="Page-1" stroke="none" stroke-width="1" fill="none" fill-rule="evenodd">
        <g id="Desktop-HD" transform="translate(-451.000000, -3019.000000)" fill="#5A46FF">
            <g id="Page-1" transform="translate(451.000000, 3018.000000)">
                <g id="logo-marina" transform="translate(0.000000, 0.919879)">
                    <polygon id="Fill-1" points="10.6603111 28.930429 25.5692825 28.930429 25.5692825 25.7448306 10.6603111 25.7448306"></polygon>
                    <path d="M33.2639067,32.4126653 C33.0145022,32.4126653 32.7889742,32.2554267 32.7027465,32.0214862 L23.546409,7.18025209 L9.89076948,32.1018994 C9.78573752,32.2935301 9.58482833,32.4126653 9.36622824,32.4126653 L7.0979585,32.4126653 C6.88443063,32.4126653 6.6920576,32.3029323 6.58331426,32.1193428 C6.47457092,31.9357534 6.47085955,31.7143079 6.57341726,31.5272545 L23.4836867,0.664806541 C23.5904507,0.470330401 23.7861639,0.354040597 24.0074857,0.354040597 C24.2612202,0.354040597 24.4819234,0.507691593 24.5695119,0.745343416 L35.9452527,31.6077914 C36.0127997,31.7911334 35.9864489,31.9962488 35.8747365,32.1565803 C35.7629003,32.3170355 35.5795583,32.4126653 35.3840925,32.4126653 L33.2639067,32.4126653 Z" id="Fill-3"></path>
                    <path d="M26.8632293,32.4126653 C26.6446292,32.4126653 26.4435963,32.2935301 26.338688,32.1017757 L12.6829248,7.18025209 L3.5268347,32.0213625 C3.44048334,32.2554267 3.21507906,32.4126653 2.96567454,32.4126653 L0.845488732,32.4126653 C0.650022891,32.4126653 0.466557168,32.3170355 0.354844729,32.156704 C0.243008577,31.9963726 0.216657802,31.7911334 0.284328571,31.6077914 L11.6600694,0.745343416 C11.7476579,0.507691593 11.9683611,0.354040597 12.2220955,0.354040597 C12.4434173,0.354040597 12.6391305,0.470330401 12.7457708,0.664806541 L29.6560403,31.5272545 C29.758598,31.7143079 29.7548866,31.9357534 29.6461432,32.1193428 C29.5373999,32.3029323 29.3450269,32.4126653 29.131499,32.4126653 L26.8632293,32.4126653 Z" id="Fill-8"></path>
                </g>
            </g>
        </g>
    </g>
</svg>