<svg width="26px" height="26px" viewBox="0 0 26 26" version="1.1" xmlns="http://www.w3.org/2000/svg" xmlns:xlink="http://www.w3.org/1999/xlink"><g id="Symbols" stroke="none" stroke-width="1" fill-rule="evenodd"><g id="Icon/HatenaBlog" transform="translate(-2.000000, -2.000000)" fill-rule="nonzero"><path d="M14.9996057,28 C7.83159268,28 2,22.1686702 2,15 C2,7.83198698 7.83159268,2 14.9996057,2 C22.1686702,2 27.9994743,7.83198698 27.9994743,15 C27.9994743,22.1686702 22.1686702,28 14.9996057,28 Z M14.9996057,3.65343902 C8.74321851,3.65343902 3.65291328,8.74295565 3.65291328,15 C3.65291328,21.2569129 8.74321851,26.3469553 14.9996057,26.3469553 C21.2571758,26.3469553 26.3473496,21.2569129 26.3473496,15 C26.3473496,8.74295565 21.2571758,3.65343902 14.9996057,3.65343902 Z M16.5138562,8.58076616 C15.8787674,7.29468501 15.4909058,6.04409103 15.2950692,5.31528981 L15.2950692,14.5228948 C15.6166881,14.6434197 15.8466975,14.9509751 15.8466975,15.3142586 C15.8466975,15.782032 15.4672477,16.160956 14.9998686,16.160956 C14.5319637,16.160956 14.1530397,15.7817691 14.1530397,15.3142586 C14.1530397,14.9336259 14.40605,14.6154243 14.7521156,14.508437 L14.7521156,5.3055637 C14.5569362,6.03252485 14.1688117,7.28916479 13.5306999,8.58076616 C12.5356135,10.5935456 11.29514,12.3690867 11.29514,12.3690867 L12.0884753,23.2252677 C12.0884753,23.2252677 12.8423804,24.0665763 15.0207666,24.0677593 L15.0237895,24.0677593 C17.2020443,24.0665763 17.9563437,23.2252677 17.9563437,23.2252677 L18.7495476,12.3690867 C18.7491533,12.3690867 17.5086797,10.593677 16.5138562,8.58076616 Z" id="HatenaBlog"></path></g></g></svg>
